<svg xmlns="http://www.w3.org/2000/svg" width="729" height="166" style="background:#0d1117;border-radius:6px;">
  <text x="30" y="20" font-family="monospace" font-size="12" fill="#e6edf3">15,700 reviews in the last year</text>
  <text x="30" y="40" font-family="monospace" font-size="10" fill="#8b949e">Mar</text>
  <text x="69" y="40" font-family="monospace" font-size="10" fill="#8b949e">Apr</text>
  <text x="121" y="40" font-family="monospace" font-size="10" fill="#8b949e">May</text>
  <text x="173" y="40" font-family="monospace" font-size="10" fill="#8b949e">Jun</text>
  <text x="238" y="40" font-family="monospace" font-size="10" fill="#8b949e">Jul</text>
  <text x="290" y="40" font-family="monospace" font-size="10" fill="#8b949e">Aug</text>
  <text x="355" y="40" font-family="monospace" font-size="10" fill="#8b949e">Sep</text>
  <text x="407" y="40" font-family="monospace" font-size="10" fill="#8b949e">Oct</text>
  <text x="459" y="40" font-family="monospace" font-size="10" fill="#8b949e">Nov</text>
  <text x="524" y="40" font-family="monospace" font-size="10" fill="#8b949e">Dec</text>
  <text x="576" y="40" font-family="monospace" font-size="10" fill="#8b949e">Jan</text>
  <text x="628" y="40" font-family="monospace" font-size="10" fill="#8b949e">Feb</text>
  <text x="680" y="40" font-family="monospace" font-size="10" fill="#8b949e">Mar</text>
  <text x="28" y="69" font-family="monospace" font-size="9" fill="#8b949e" text-anchor="end">Mon</text>
  <text x="28" y="95" font-family="monospace" font-size="9" fill="#8b949e" text-anchor="end">Wed</text>
  <text x="28" y="121" font-family="monospace" font-size="9" fill="#8b949e" text-anchor="end">Fri</text>
  <rect x="30" y="45" width="11" height="11" rx="2" fill="#161b22"><title>2025-03-16: 0 reviews</title></rect>
  <rect x="30" y="58" width="11" height="11" rx="2" fill="#161b22"><title>2025-03-17: 0 reviews</title></rect>
  <rect x="30" y="71" width="11" height="11" rx="2" fill="#161b22"><title>2025-03-18: 0 reviews</title></rect>
  <rect x="30" y="84" width="11" height="11" rx="2" fill="#161b22"><title>2025-03-19: 0 reviews</title></rect>
  <rect x="30" y="97" width="11" height="11" rx="2" fill="#161b22"><title>2025-03-20: 0 reviews</title></rect>
  <rect x="30" y="110" width="11" height="11" rx="2" fill="#161b22"><title>2025-03-21: 0 reviews</title></rect>
  <rect x="30" y="123" width="11" height="11" rx="2" fill="#161b22"><title>2025-03-22: 0 reviews</title></rect>
  <rect x="43" y="45" width="11" height="11" rx="2" fill="#161b22"><title>2025-03-23: 0 reviews</title></rect>
  <rect x="43" y="58" width="11" height="11" rx="2" fill="#161b22"><title>2025-03-24: 0 reviews</title></rect>
  <rect x="43" y="71" width="11" height="11" rx="2" fill="#161b22"><title>2025-03-25: 0 reviews</title></rect>
  <rect x="43" y="84" width="11" height="11" rx="2" fill="#161b22"><title>2025-03-26: 0 reviews</title></rect>
  <rect x="43" y="97" width="11" height="11" rx="2" fill="#161b22"><title>2025-03-27: 0 reviews</title></rect>
  <rect x="43" y="110" width="11" height="11" rx="2" fill="#161b22"><title>2025-03-28: 0 reviews</title></rect>
  <rect x="43" y="123" width="11" height="11" rx="2" fill="#161b22"><title>2025-03-29: 0 reviews</title></rect>
  <rect x="56" y="45" width="11" height="11" rx="2" fill="#161b22"><title>2025-03-30: 0 reviews</title></rect>
  <rect x="56" y="58" width="11" height="11" rx="2" fill="#161b22"><title>2025-03-31: 0 reviews</title></rect>
  <rect x="56" y="71" width="11" height="11" rx="2" fill="#161b22"><title>2025-04-01: 0 reviews</title></rect>
  <rect x="56" y="84" width="11" height="11" rx="2" fill="#161b22"><title>2025-04-02: 0 reviews</title></rect>
  <rect x="56" y="97" width="11" height="11" rx="2" fill="#161b22"><title>2025-04-03: 0 reviews</title></rect>
  <rect x="56" y="110" width="11" height="11" rx="2" fill="#161b22"><title>2025-04-04: 0 reviews</title></rect>
  <rect x="56" y="123" width="11" height="11" rx="2" fill="#161b22"><title>2025-04-05: 0 reviews</title></rect>
  <rect x="69" y="45" width="11" height="11" rx="2" fill="#161b22"><title>2025-04-06: 0 reviews</title></rect>
  <rect x="69" y="58" width="11" height="11" rx="2" fill="#161b22"><title>2025-04-07: 0 reviews</title></rect>
  <rect x="69" y="71" width="11" height="11" rx="2" fill="#161b22"><title>2025-04-08: 0 reviews</title></rect>
  <rect x="69" y="84" width="11" height="11" rx="2" fill="#161b22"><title>2025-04-09: 0 reviews</title></rect>
  <rect x="69" y="97" width="11" height="11" rx="2" fill="#161b22"><title>2025-04-10: 0 reviews</title></rect>
  <rect x="69" y="110" width="11" height="11" rx="2" fill="#161b22"><title>2025-04-11: 0 reviews</title></rect>
  <rect x="69" y="123" width="11" height="11" rx="2" fill="#161b22"><title>2025-04-12: 0 reviews</title></rect>
  <rect x="82" y="45" width="11" height="11" rx="2" fill="#161b22"><title>2025-04-13: 0 reviews</title></rect>
  <rect x="82" y="58" width="11" height="11" rx="2" fill="#161b22"><title>2025-04-14: 0 reviews</title></rect>
  <rect x="82" y="71" width="11" height="11" rx="2" fill="#161b22"><title>2025-04-15: 0 reviews</title></rect>
  <rect x="82" y="84" width="11" height="11" rx="2" fill="#161b22"><title>2025-04-16: 0 reviews</title></rect>
  <rect x="82" y="97" width="11" height="11" rx="2" fill="#161b22"><title>2025-04-17: 0 reviews</title></rect>
  <rect x="82" y="110" width="11" height="11" rx="2" fill="#161b22"><title>2025-04-18: 0 reviews</title></rect>
  <rect x="82" y="123" width="11" height="11" rx="2" fill="#161b22"><title>2025-04-19: 0 reviews</title></rect>
  <rect x="95" y="45" width="11" height="11" rx="2" fill="#161b22"><title>2025-04-20: 0 reviews</title></rect>
  <rect x="95" y="58" width="11" height="11" rx="2" fill="#161b22"><title>2025-04-21: 0 reviews</title></rect>
  <rect x="95" y="71" width="11" height="11" rx="2" fill="#161b22"><title>2025-04-22: 0 reviews</title></rect>
  <rect x="95" y="84" width="11" height="11" rx="2" fill="#161b22"><title>2025-04-23: 0 reviews</title></rect>
  <rect x="95" y="97" width="11" height="11" rx="2" fill="#161b22"><title>2025-04-24: 0 reviews</title></rect>
  <rect x="95" y="110" width="11" height="11" rx="2" fill="#161b22"><title>2025-04-25: 0 reviews</title></rect>
  <rect x="95" y="123" width="11" height="11" rx="2" fill="#161b22"><title>2025-04-26: 0 reviews</title></rect>
  <rect x="108" y="45" width="11" height="11" rx="2" fill="#161b22"><title>2025-04-27: 0 reviews</title></rect>
  <rect x="108" y="58" width="11" height="11" rx="2" fill="#161b22"><title>2025-04-28: 0 reviews</title></rect>
  <rect x="108" y="71" width="11" height="11" rx="2" fill="#161b22"><title>2025-04-29: 0 reviews</title></rect>
  <rect x="108" y="84" width="11" height="11" rx="2" fill="#161b22"><title>2025-04-30: 0 reviews</title></rect>
  <rect x="108" y="97" width="11" height="11" rx="2" fill="#161b22"><title>2025-05-01: 0 reviews</title></rect>
  <rect x="108" y="110" width="11" height="11" rx="2" fill="#161b22"><title>2025-05-02: 0 reviews</title></rect>
  <rect x="108" y="123" width="11" height="11" rx="2" fill="#161b22"><title>2025-05-03: 0 reviews</title></rect>
  <rect x="121" y="45" width="11" height="11" rx="2" fill="#161b22"><title>2025-05-04: 0 reviews</title></rect>
  <rect x="121" y="58" width="11" height="11" rx="2" fill="#161b22"><title>2025-05-05: 0 reviews</title></rect>
  <rect x="121" y="71" width="11" height="11" rx="2" fill="#161b22"><title>2025-05-06: 0 reviews</title></rect>
  <rect x="121" y="84" width="11" height="11" rx="2" fill="#161b22"><title>2025-05-07: 0 reviews</title></rect>
  <rect x="121" y="97" width="11" height="11" rx="2" fill="#161b22"><title>2025-05-08: 0 reviews</title></rect>
  <rect x="121" y="110" width="11" height="11" rx="2" fill="#161b22"><title>2025-05-09: 0 reviews</title></rect>
  <rect x="121" y="123" width="11" height="11" rx="2" fill="#161b22"><title>2025-05-10: 0 reviews</title></rect>
  <rect x="134" y="45" width="11" height="11" rx="2" fill="#161b22"><title>2025-05-11: 0 reviews</title></rect>
  <rect x="134" y="58" width="11" height="11" rx="2" fill="#161b22"><title>2025-05-12: 0 reviews</title></rect>
  <rect x="134" y="71" width="11" height="11" rx="2" fill="#161b22"><title>2025-05-13: 0 reviews</title></rect>
  <rect x="134" y="84" width="11" height="11" rx="2" fill="#161b22"><title>2025-05-14: 0 reviews</title></rect>
  <rect x="134" y="97" width="11" height="11" rx="2" fill="#161b22"><title>2025-05-15: 0 reviews</title></rect>
  <rect x="134" y="110" width="11" height="11" rx="2" fill="#161b22"><title>2025-05-16: 0 reviews</title></rect>
  <rect x="134" y="123" width="11" height="11" rx="2" fill="#161b22"><title>2025-05-17: 0 reviews</title></rect>
  <rect x="147" y="45" width="11" height="11" rx="2" fill="#161b22"><title>2025-05-18: 0 reviews</title></rect>
  <rect x="147" y="58" width="11" height="11" rx="2" fill="#161b22"><title>2025-05-19: 0 reviews</title></rect>
  <rect x="147" y="71" width="11" height="11" rx="2" fill="#161b22"><title>2025-05-20: 0 reviews</title></rect>
  <rect x="147" y="84" width="11" height="11" rx="2" fill="#161b22"><title>2025-05-21: 0 reviews</title></rect>
  <rect x="147" y="97" width="11" height="11" rx="2" fill="#161b22"><title>2025-05-22: 0 reviews</title></rect>
  <rect x="147" y="110" width="11" height="11" rx="2" fill="#161b22"><title>2025-05-23: 0 reviews</title></rect>
  <rect x="147" y="123" width="11" height="11" rx="2" fill="#161b22"><title>2025-05-24: 0 reviews</title></rect>
  <rect x="160" y="45" width="11" height="11" rx="2" fill="#161b22"><title>2025-05-25: 0 reviews</title></rect>
  <rect x="160" y="58" width="11" height="11" rx="2" fill="#161b22"><title>2025-05-26: 0 reviews</title></rect>
  <rect x="160" y="71" width="11" height="11" rx="2" fill="#161b22"><title>2025-05-27: 0 reviews</title></rect>
  <rect x="160" y="84" width="11" height="11" rx="2" fill="#161b22"><title>2025-05-28: 0 reviews</title></rect>
  <rect x="160" y="97" width="11" height="11" rx="2" fill="#161b22"><title>2025-05-29: 0 reviews</title></rect>
  <rect x="160" y="110" width="11" height="11" rx="2" fill="#161b22"><title>2025-05-30: 0 reviews</title></rect>
  <rect x="160" y="123" width="11" height="11" rx="2" fill="#161b22"><title>2025-05-31: 0 reviews</title></rect>
  <rect x="173" y="45" width="11" height="11" rx="2" fill="#161b22"><title>2025-06-01: 0 reviews</title></rect>
  <rect x="173" y="58" width="11" height="11" rx="2" fill="#161b22"><title>2025-06-02: 0 reviews</title></rect>
  <rect x="173" y="71" width="11" height="11" rx="2" fill="#161b22"><title>2025-06-03: 0 reviews</title></rect>
  <rect x="173" y="84" width="11" height="11" rx="2" fill="#161b22"><title>2025-06-04: 0 reviews</title></rect>
  <rect x="173" y="97" width="11" height="11" rx="2" fill="#161b22"><title>2025-06-05: 0 reviews</title></rect>
  <rect x="173" y="110" width="11" height="11" rx="2" fill="#161b22"><title>2025-06-06: 0 reviews</title></rect>
  <rect x="173" y="123" width="11" height="11" rx="2" fill="#161b22"><title>2025-06-07: 0 reviews</title></rect>
  <rect x="186" y="45" width="11" height="11" rx="2" fill="#161b22"><title>2025-06-08: 0 reviews</title></rect>
  <rect x="186" y="58" width="11" height="11" rx="2" fill="#161b22"><title>2025-06-09: 0 reviews</title></rect>
  <rect x="186" y="71" width="11" height="11" rx="2" fill="#161b22"><title>2025-06-10: 0 reviews</title></rect>
  <rect x="186" y="84" width="11" height="11" rx="2" fill="#161b22"><title>2025-06-11: 0 reviews</title></rect>
  <rect x="186" y="97" width="11" height="11" rx="2" fill="#161b22"><title>2025-06-12: 0 reviews</title></rect>
  <rect x="186" y="110" width="11" height="11" rx="2" fill="#161b22"><title>2025-06-13: 0 reviews</title></rect>
  <rect x="186" y="123" width="11" height="11" rx="2" fill="#161b22"><title>2025-06-14: 0 reviews</title></rect>
  <rect x="199" y="45" width="11" height="11" rx="2" fill="#161b22"><title>2025-06-15: 0 reviews</title></rect>
  <rect x="199" y="58" width="11" height="11" rx="2" fill="#161b22"><title>2025-06-16: 0 reviews</title></rect>
  <rect x="199" y="71" width="11" height="11" rx="2" fill="#161b22"><title>2025-06-17: 0 reviews</title></rect>
  <rect x="199" y="84" width="11" height="11" rx="2" fill="#161b22"><title>2025-06-18: 0 reviews</title></rect>
  <rect x="199" y="97" width="11" height="11" rx="2" fill="#161b22"><title>2025-06-19: 0 reviews</title></rect>
  <rect x="199" y="110" width="11" height="11" rx="2" fill="#161b22"><title>2025-06-20: 0 reviews</title></rect>
  <rect x="199" y="123" width="11" height="11" rx="2" fill="#161b22"><title>2025-06-21: 0 reviews</title></rect>
  <rect x="212" y="45" width="11" height="11" rx="2" fill="#161b22"><title>2025-06-22: 0 reviews</title></rect>
  <rect x="212" y="58" width="11" height="11" rx="2" fill="#161b22"><title>2025-06-23: 0 reviews</title></rect>
  <rect x="212" y="71" width="11" height="11" rx="2" fill="#161b22"><title>2025-06-24: 0 reviews</title></rect>
  <rect x="212" y="84" width="11" height="11" rx="2" fill="#161b22"><title>2025-06-25: 0 reviews</title></rect>
  <rect x="212" y="97" width="11" height="11" rx="2" fill="#161b22"><title>2025-06-26: 0 reviews</title></rect>
  <rect x="212" y="110" width="11" height="11" rx="2" fill="#161b22"><title>2025-06-27: 0 reviews</title></rect>
  <rect x="212" y="123" width="11" height="11" rx="2" fill="#161b22"><title>2025-06-28: 0 reviews</title></rect>
  <rect x="225" y="45" width="11" height="11" rx="2" fill="#161b22"><title>2025-06-29: 0 reviews</title></rect>
  <rect x="225" y="58" width="11" height="11" rx="2" fill="#161b22"><title>2025-06-30: 0 reviews</title></rect>
  <rect x="225" y="71" width="11" height="11" rx="2" fill="#161b22"><title>2025-07-01: 0 reviews</title></rect>
  <rect x="225" y="84" width="11" height="11" rx="2" fill="#161b22"><title>2025-07-02: 0 reviews</title></rect>
  <rect x="225" y="97" width="11" height="11" rx="2" fill="#161b22"><title>2025-07-03: 0 reviews</title></rect>
  <rect x="225" y="110" width="11" height="11" rx="2" fill="#161b22"><title>2025-07-04: 0 reviews</title></rect>
  <rect x="225" y="123" width="11" height="11" rx="2" fill="#161b22"><title>2025-07-05: 0 reviews</title></rect>
  <rect x="238" y="45" width="11" height="11" rx="2" fill="#161b22"><title>2025-07-06: 0 reviews</title></rect>
  <rect x="238" y="58" width="11" height="11" rx="2" fill="#161b22"><title>2025-07-07: 0 reviews</title></rect>
  <rect x="238" y="71" width="11" height="11" rx="2" fill="#161b22"><title>2025-07-08: 0 reviews</title></rect>
  <rect x="238" y="84" width="11" height="11" rx="2" fill="#161b22"><title>2025-07-09: 0 reviews</title></rect>
  <rect x="238" y="97" width="11" height="11" rx="2" fill="#161b22"><title>2025-07-10: 0 reviews</title></rect>
  <rect x="238" y="110" width="11" height="11" rx="2" fill="#161b22"><title>2025-07-11: 0 reviews</title></rect>
  <rect x="238" y="123" width="11" height="11" rx="2" fill="#161b22"><title>2025-07-12: 0 reviews</title></rect>
  <rect x="251" y="45" width="11" height="11" rx="2" fill="#161b22"><title>2025-07-13: 0 reviews</title></rect>
  <rect x="251" y="58" width="11" height="11" rx="2" fill="#161b22"><title>2025-07-14: 0 reviews</title></rect>
  <rect x="251" y="71" width="11" height="11" rx="2" fill="#161b22"><title>2025-07-15: 0 reviews</title></rect>
  <rect x="251" y="84" width="11" height="11" rx="2" fill="#161b22"><title>2025-07-16: 0 reviews</title></rect>
  <rect x="251" y="97" width="11" height="11" rx="2" fill="#161b22"><title>2025-07-17: 0 reviews</title></rect>
  <rect x="251" y="110" width="11" height="11" rx="2" fill="#161b22"><title>2025-07-18: 0 reviews</title></rect>
  <rect x="251" y="123" width="11" height="11" rx="2" fill="#161b22"><title>2025-07-19: 0 reviews</title></rect>
  <rect x="264" y="45" width="11" height="11" rx="2" fill="#161b22"><title>2025-07-20: 0 reviews</title></rect>
  <rect x="264" y="58" width="11" height="11" rx="2" fill="#161b22"><title>2025-07-21: 0 reviews</title></rect>
  <rect x="264" y="71" width="11" height="11" rx="2" fill="#161b22"><title>2025-07-22: 0 reviews</title></rect>
  <rect x="264" y="84" width="11" height="11" rx="2" fill="#161b22"><title>2025-07-23: 0 reviews</title></rect>
  <rect x="264" y="97" width="11" height="11" rx="2" fill="#161b22"><title>2025-07-24: 0 reviews</title></rect>
  <rect x="264" y="110" width="11" height="11" rx="2" fill="#161b22"><title>2025-07-25: 0 reviews</title></rect>
  <rect x="264" y="123" width="11" height="11" rx="2" fill="#161b22"><title>2025-07-26: 0 reviews</title></rect>
  <rect x="277" y="45" width="11" height="11" rx="2" fill="#161b22"><title>2025-07-27: 0 reviews</title></rect>
  <rect x="277" y="58" width="11" height="11" rx="2" fill="#161b22"><title>2025-07-28: 0 reviews</title></rect>
  <rect x="277" y="71" width="11" height="11" rx="2" fill="#161b22"><title>2025-07-29: 0 reviews</title></rect>
  <rect x="277" y="84" width="11" height="11" rx="2" fill="#161b22"><title>2025-07-30: 0 reviews</title></rect>
  <rect x="277" y="97" width="11" height="11" rx="2" fill="#161b22"><title>2025-07-31: 0 reviews</title></rect>
  <rect x="277" y="110" width="11" height="11" rx="2" fill="#161b22"><title>2025-08-01: 0 reviews</title></rect>
  <rect x="277" y="123" width="11" height="11" rx="2" fill="#161b22"><title>2025-08-02: 0 reviews</title></rect>
  <rect x="290" y="45" width="11" height="11" rx="2" fill="#161b22"><title>2025-08-03: 0 reviews</title></rect>
  <rect x="290" y="58" width="11" height="11" rx="2" fill="#161b22"><title>2025-08-04: 0 reviews</title></rect>
  <rect x="290" y="71" width="11" height="11" rx="2" fill="#161b22"><title>2025-08-05: 0 reviews</title></rect>
  <rect x="290" y="84" width="11" height="11" rx="2" fill="#161b22"><title>2025-08-06: 0 reviews</title></rect>
  <rect x="290" y="97" width="11" height="11" rx="2" fill="#161b22"><title>2025-08-07: 0 reviews</title></rect>
  <rect x="290" y="110" width="11" height="11" rx="2" fill="#161b22"><title>2025-08-08: 0 reviews</title></rect>
  <rect x="290" y="123" width="11" height="11" rx="2" fill="#161b22"><title>2025-08-09: 0 reviews</title></rect>
  <rect x="303" y="45" width="11" height="11" rx="2" fill="#161b22"><title>2025-08-10: 0 reviews</title></rect>
  <rect x="303" y="58" width="11" height="11" rx="2" fill="#161b22"><title>2025-08-11: 0 reviews</title></rect>
  <rect x="303" y="71" width="11" height="11" rx="2" fill="#161b22"><title>2025-08-12: 0 reviews</title></rect>
  <rect x="303" y="84" width="11" height="11" rx="2" fill="#161b22"><title>2025-08-13: 0 reviews</title></rect>
  <rect x="303" y="97" width="11" height="11" rx="2" fill="#161b22"><title>2025-08-14: 0 reviews</title></rect>
  <rect x="303" y="110" width="11" height="11" rx="2" fill="#161b22"><title>2025-08-15: 0 reviews</title></rect>
  <rect x="303" y="123" width="11" height="11" rx="2" fill="#161b22"><title>2025-08-16: 0 reviews</title></rect>
  <rect x="316" y="45" width="11" height="11" rx="2" fill="#161b22"><title>2025-08-17: 0 reviews</title></rect>
  <rect x="316" y="58" width="11" height="11" rx="2" fill="#161b22"><title>2025-08-18: 0 reviews</title></rect>
  <rect x="316" y="71" width="11" height="11" rx="2" fill="#161b22"><title>2025-08-19: 0 reviews</title></rect>
  <rect x="316" y="84" width="11" height="11" rx="2" fill="#161b22"><title>2025-08-20: 0 reviews</title></rect>
  <rect x="316" y="97" width="11" height="11" rx="2" fill="#161b22"><title>2025-08-21: 0 reviews</title></rect>
  <rect x="316" y="110" width="11" height="11" rx="2" fill="#161b22"><title>2025-08-22: 0 reviews</title></rect>
  <rect x="316" y="123" width="11" height="11" rx="2" fill="#161b22"><title>2025-08-23: 0 reviews</title></rect>
  <rect x="329" y="45" width="11" height="11" rx="2" fill="#161b22"><title>2025-08-24: 0 reviews</title></rect>
  <rect x="329" y="58" width="11" height="11" rx="2" fill="#161b22"><title>2025-08-25: 0 reviews</title></rect>
  <rect x="329" y="71" width="11" height="11" rx="2" fill="#161b22"><title>2025-08-26: 0 reviews</title></rect>
  <rect x="329" y="84" width="11" height="11" rx="2" fill="#161b22"><title>2025-08-27: 0 reviews</title></rect>
  <rect x="329" y="97" width="11" height="11" rx="2" fill="#161b22"><title>2025-08-28: 0 reviews</title></rect>
  <rect x="329" y="110" width="11" height="11" rx="2" fill="#161b22"><title>2025-08-29: 0 reviews</title></rect>
  <rect x="329" y="123" width="11" height="11" rx="2" fill="#161b22"><title>2025-08-30: 0 reviews</title></rect>
  <rect x="342" y="45" width="11" height="11" rx="2" fill="#161b22"><title>2025-08-31: 0 reviews</title></rect>
  <rect x="342" y="58" width="11" height="11" rx="2" fill="#161b22"><title>2025-09-01: 0 reviews</title></rect>
  <rect x="342" y="71" width="11" height="11" rx="2" fill="#161b22"><title>2025-09-02: 0 reviews</title></rect>
  <rect x="342" y="84" width="11" height="11" rx="2" fill="#161b22"><title>2025-09-03: 0 reviews</title></rect>
  <rect x="342" y="97" width="11" height="11" rx="2" fill="#161b22"><title>2025-09-04: 0 reviews</title></rect>
  <rect x="342" y="110" width="11" height="11" rx="2" fill="#161b22"><title>2025-09-05: 0 reviews</title></rect>
  <rect x="342" y="123" width="11" height="11" rx="2" fill="#161b22"><title>2025-09-06: 0 reviews</title></rect>
  <rect x="355" y="45" width="11" height="11" rx="2" fill="#161b22"><title>2025-09-07: 0 reviews</title></rect>
  <rect x="355" y="58" width="11" height="11" rx="2" fill="#161b22"><title>2025-09-08: 0 reviews</title></rect>
  <rect x="355" y="71" width="11" height="11" rx="2" fill="#161b22"><title>2025-09-09: 0 reviews</title></rect>
  <rect x="355" y="84" width="11" height="11" rx="2" fill="#161b22"><title>2025-09-10: 0 reviews</title></rect>
  <rect x="355" y="97" width="11" height="11" rx="2" fill="#161b22"><title>2025-09-11: 0 reviews</title></rect>
  <rect x="355" y="110" width="11" height="11" rx="2" fill="#161b22"><title>2025-09-12: 0 reviews</title></rect>
  <rect x="355" y="123" width="11" height="11" rx="2" fill="#161b22"><title>2025-09-13: 0 reviews</title></rect>
  <rect x="368" y="45" width="11" height="11" rx="2" fill="#161b22"><title>2025-09-14: 0 reviews</title></rect>
  <rect x="368" y="58" width="11" height="11" rx="2" fill="#161b22"><title>2025-09-15: 0 reviews</title></rect>
  <rect x="368" y="71" width="11" height="11" rx="2" fill="#161b22"><title>2025-09-16: 0 reviews</title></rect>
  <rect x="368" y="84" width="11" height="11" rx="2" fill="#161b22"><title>2025-09-17: 0 reviews</title></rect>
  <rect x="368" y="97" width="11" height="11" rx="2" fill="#161b22"><title>2025-09-18: 0 reviews</title></rect>
  <rect x="368" y="110" width="11" height="11" rx="2" fill="#161b22"><title>2025-09-19: 0 reviews</title></rect>
  <rect x="368" y="123" width="11" height="11" rx="2" fill="#161b22"><title>2025-09-20: 0 reviews</title></rect>
  <rect x="381" y="45" width="11" height="11" rx="2" fill="#161b22"><title>2025-09-21: 0 reviews</title></rect>
  <rect x="381" y="58" width="11" height="11" rx="2" fill="#161b22"><title>2025-09-22: 0 reviews</title></rect>
  <rect x="381" y="71" width="11" height="11" rx="2" fill="#161b22"><title>2025-09-23: 0 reviews</title></rect>
  <rect x="381" y="84" width="11" height="11" rx="2" fill="#161b22"><title>2025-09-24: 0 reviews</title></rect>
  <rect x="381" y="97" width="11" height="11" rx="2" fill="#161b22"><title>2025-09-25: 0 reviews</title></rect>
  <rect x="381" y="110" width="11" height="11" rx="2" fill="#161b22"><title>2025-09-26: 0 reviews</title></rect>
  <rect x="381" y="123" width="11" height="11" rx="2" fill="#161b22"><title>2025-09-27: 0 reviews</title></rect>
  <rect x="394" y="45" width="11" height="11" rx="2" fill="#161b22"><title>2025-09-28: 0 reviews</title></rect>
  <rect x="394" y="58" width="11" height="11" rx="2" fill="#161b22"><title>2025-09-29: 0 reviews</title></rect>
  <rect x="394" y="71" width="11" height="11" rx="2" fill="#161b22"><title>2025-09-30: 0 reviews</title></rect>
  <rect x="394" y="84" width="11" height="11" rx="2" fill="#161b22"><title>2025-10-01: 0 reviews</title></rect>
  <rect x="394" y="97" width="11" height="11" rx="2" fill="#161b22"><title>2025-10-02: 0 reviews</title></rect>
  <rect x="394" y="110" width="11" height="11" rx="2" fill="#161b22"><title>2025-10-03: 0 reviews</title></rect>
  <rect x="394" y="123" width="11" height="11" rx="2" fill="#161b22"><title>2025-10-04: 0 reviews</title></rect>
  <rect x="407" y="45" width="11" height="11" rx="2" fill="#161b22"><title>2025-10-05: 0 reviews</title></rect>
  <rect x="407" y="58" width="11" height="11" rx="2" fill="#161b22"><title>2025-10-06: 0 reviews</title></rect>
  <rect x="407" y="71" width="11" height="11" rx="2" fill="#161b22"><title>2025-10-07: 0 reviews</title></rect>
  <rect x="407" y="84" width="11" height="11" rx="2" fill="#161b22"><title>2025-10-08: 0 reviews</title></rect>
  <rect x="407" y="97" width="11" height="11" rx="2" fill="#161b22"><title>2025-10-09: 0 reviews</title></rect>
  <rect x="407" y="110" width="11" height="11" rx="2" fill="#161b22"><title>2025-10-10: 0 reviews</title></rect>
  <rect x="407" y="123" width="11" height="11" rx="2" fill="#161b22"><title>2025-10-11: 0 reviews</title></rect>
  <rect x="420" y="45" width="11" height="11" rx="2" fill="#161b22"><title>2025-10-12: 0 reviews</title></rect>
  <rect x="420" y="58" width="11" height="11" rx="2" fill="#161b22"><title>2025-10-13: 0 reviews</title></rect>
  <rect x="420" y="71" width="11" height="11" rx="2" fill="#161b22"><title>2025-10-14: 0 reviews</title></rect>
  <rect x="420" y="84" width="11" height="11" rx="2" fill="#161b22"><title>2025-10-15: 0 reviews</title></rect>
  <rect x="420" y="97" width="11" height="11" rx="2" fill="#161b22"><title>2025-10-16: 0 reviews</title></rect>
  <rect x="420" y="110" width="11" height="11" rx="2" fill="#161b22"><title>2025-10-17: 0 reviews</title></rect>
  <rect x="420" y="123" width="11" height="11" rx="2" fill="#161b22"><title>2025-10-18: 0 reviews</title></rect>
  <rect x="433" y="45" width="11" height="11" rx="2" fill="#161b22"><title>2025-10-19: 0 reviews</title></rect>
  <rect x="433" y="58" width="11" height="11" rx="2" fill="#161b22"><title>2025-10-20: 0 reviews</title></rect>
  <rect x="433" y="71" width="11" height="11" rx="2" fill="#161b22"><title>2025-10-21: 0 reviews</title></rect>
  <rect x="433" y="84" width="11" height="11" rx="2" fill="#161b22"><title>2025-10-22: 0 reviews</title></rect>
  <rect x="433" y="97" width="11" height="11" rx="2" fill="#161b22"><title>2025-10-23: 0 reviews</title></rect>
  <rect x="433" y="110" width="11" height="11" rx="2" fill="#161b22"><title>2025-10-24: 0 reviews</title></rect>
  <rect x="433" y="123" width="11" height="11" rx="2" fill="#161b22"><title>2025-10-25: 0 reviews</title></rect>
  <rect x="446" y="45" width="11" height="11" rx="2" fill="#161b22"><title>2025-10-26: 0 reviews</title></rect>
  <rect x="446" y="58" width="11" height="11" rx="2" fill="#161b22"><title>2025-10-27: 0 reviews</title></rect>
  <rect x="446" y="71" width="11" height="11" rx="2" fill="#161b22"><title>2025-10-28: 0 reviews</title></rect>
  <rect x="446" y="84" width="11" height="11" rx="2" fill="#161b22"><title>2025-10-29: 0 reviews</title></rect>
  <rect x="446" y="97" width="11" height="11" rx="2" fill="#161b22"><title>2025-10-30: 0 reviews</title></rect>
  <rect x="446" y="110" width="11" height="11" rx="2" fill="#161b22"><title>2025-10-31: 0 reviews</title></rect>
  <rect x="446" y="123" width="11" height="11" rx="2" fill="#161b22"><title>2025-11-01: 0 reviews</title></rect>
  <rect x="459" y="45" width="11" height="11" rx="2" fill="#161b22"><title>2025-11-02: 0 reviews</title></rect>
  <rect x="459" y="58" width="11" height="11" rx="2" fill="#161b22"><title>2025-11-03: 0 reviews</title></rect>
  <rect x="459" y="71" width="11" height="11" rx="2" fill="#161b22"><title>2025-11-04: 0 reviews</title></rect>
  <rect x="459" y="84" width="11" height="11" rx="2" fill="#161b22"><title>2025-11-05: 0 reviews</title></rect>
  <rect x="459" y="97" width="11" height="11" rx="2" fill="#161b22"><title>2025-11-06: 0 reviews</title></rect>
  <rect x="459" y="110" width="11" height="11" rx="2" fill="#161b22"><title>2025-11-07: 0 reviews</title></rect>
  <rect x="459" y="123" width="11" height="11" rx="2" fill="#161b22"><title>2025-11-08: 0 reviews</title></rect>
  <rect x="472" y="45" width="11" height="11" rx="2" fill="#161b22"><title>2025-11-09: 0 reviews</title></rect>
  <rect x="472" y="58" width="11" height="11" rx="2" fill="#161b22"><title>2025-11-10: 0 reviews</title></rect>
  <rect x="472" y="71" width="11" height="11" rx="2" fill="#161b22"><title>2025-11-11: 0 reviews</title></rect>
  <rect x="472" y="84" width="11" height="11" rx="2" fill="#161b22"><title>2025-11-12: 0 reviews</title></rect>
  <rect x="472" y="97" width="11" height="11" rx="2" fill="#161b22"><title>2025-11-13: 0 reviews</title></rect>
  <rect x="472" y="110" width="11" height="11" rx="2" fill="#161b22"><title>2025-11-14: 0 reviews</title></rect>
  <rect x="472" y="123" width="11" height="11" rx="2" fill="#161b22"><title>2025-11-15: 0 reviews</title></rect>
  <rect x="485" y="45" width="11" height="11" rx="2" fill="#161b22"><title>2025-11-16: 0 reviews</title></rect>
  <rect x="485" y="58" width="11" height="11" rx="2" fill="#161b22"><title>2025-11-17: 0 reviews</title></rect>
  <rect x="485" y="71" width="11" height="11" rx="2" fill="#161b22"><title>2025-11-18: 0 reviews</title></rect>
  <rect x="485" y="84" width="11" height="11" rx="2" fill="#161b22"><title>2025-11-19: 0 reviews</title></rect>
  <rect x="485" y="97" width="11" height="11" rx="2" fill="#161b22"><title>2025-11-20: 0 reviews</title></rect>
  <rect x="485" y="110" width="11" height="11" rx="2" fill="#161b22"><title>2025-11-21: 0 reviews</title></rect>
  <rect x="485" y="123" width="11" height="11" rx="2" fill="#161b22"><title>2025-11-22: 0 reviews</title></rect>
  <rect x="498" y="45" width="11" height="11" rx="2" fill="#161b22"><title>2025-11-23: 0 reviews</title></rect>
  <rect x="498" y="58" width="11" height="11" rx="2" fill="#161b22"><title>2025-11-24: 0 reviews</title></rect>
  <rect x="498" y="71" width="11" height="11" rx="2" fill="#161b22"><title>2025-11-25: 0 reviews</title></rect>
  <rect x="498" y="84" width="11" height="11" rx="2" fill="#161b22"><title>2025-11-26: 0 reviews</title></rect>
  <rect x="498" y="97" width="11" height="11" rx="2" fill="#161b22"><title>2025-11-27: 0 reviews</title></rect>
  <rect x="498" y="110" width="11" height="11" rx="2" fill="#161b22"><title>2025-11-28: 0 reviews</title></rect>
  <rect x="498" y="123" width="11" height="11" rx="2" fill="#161b22"><title>2025-11-29: 0 reviews</title></rect>
  <rect x="511" y="45" width="11" height="11" rx="2" fill="#161b22"><title>2025-11-30: 0 reviews</title></rect>
  <rect x="511" y="58" width="11" height="11" rx="2" fill="#161b22"><title>2025-12-01: 0 reviews</title></rect>
  <rect x="511" y="71" width="11" height="11" rx="2" fill="#161b22"><title>2025-12-02: 0 reviews</title></rect>
  <rect x="511" y="84" width="11" height="11" rx="2" fill="#161b22"><title>2025-12-03: 0 reviews</title></rect>
  <rect x="511" y="97" width="11" height="11" rx="2" fill="#161b22"><title>2025-12-04: 0 reviews</title></rect>
  <rect x="511" y="110" width="11" height="11" rx="2" fill="#161b22"><title>2025-12-05: 0 reviews</title></rect>
  <rect x="511" y="123" width="11" height="11" rx="2" fill="#161b22"><title>2025-12-06: 0 reviews</title></rect>
  <rect x="524" y="45" width="11" height="11" rx="2" fill="#161b22"><title>2025-12-07: 0 reviews</title></rect>
  <rect x="524" y="58" width="11" height="11" rx="2" fill="#161b22"><title>2025-12-08: 0 reviews</title></rect>
  <rect x="524" y="71" width="11" height="11" rx="2" fill="#161b22"><title>2025-12-09: 0 reviews</title></rect>
  <rect x="524" y="84" width="11" height="11" rx="2" fill="#161b22"><title>2025-12-10: 0 reviews</title></rect>
  <rect x="524" y="97" width="11" height="11" rx="2" fill="#161b22"><title>2025-12-11: 0 reviews</title></rect>
  <rect x="524" y="110" width="11" height="11" rx="2" fill="#161b22"><title>2025-12-12: 0 reviews</title></rect>
  <rect x="524" y="123" width="11" height="11" rx="2" fill="#161b22"><title>2025-12-13: 0 reviews</title></rect>
  <rect x="537" y="45" width="11" height="11" rx="2" fill="#161b22"><title>2025-12-14: 0 reviews</title></rect>
  <rect x="537" y="58" width="11" height="11" rx="2" fill="#161b22"><title>2025-12-15: 0 reviews</title></rect>
  <rect x="537" y="71" width="11" height="11" rx="2" fill="#161b22"><title>2025-12-16: 0 reviews</title></rect>
  <rect x="537" y="84" width="11" height="11" rx="2" fill="#161b22"><title>2025-12-17: 0 reviews</title></rect>
  <rect x="537" y="97" width="11" height="11" rx="2" fill="#161b22"><title>2025-12-18: 0 reviews</title></rect>
  <rect x="537" y="110" width="11" height="11" rx="2" fill="#161b22"><title>2025-12-19: 0 reviews</title></rect>
  <rect x="537" y="123" width="11" height="11" rx="2" fill="#161b22"><title>2025-12-20: 0 reviews</title></rect>
  <rect x="550" y="45" width="11" height="11" rx="2" fill="#161b22"><title>2025-12-21: 0 reviews</title></rect>
  <rect x="550" y="58" width="11" height="11" rx="2" fill="#161b22"><title>2025-12-22: 0 reviews</title></rect>
  <rect x="550" y="71" width="11" height="11" rx="2" fill="#161b22"><title>2025-12-23: 0 reviews</title></rect>
  <rect x="550" y="84" width="11" height="11" rx="2" fill="#161b22"><title>2025-12-24: 0 reviews</title></rect>
  <rect x="550" y="97" width="11" height="11" rx="2" fill="#161b22"><title>2025-12-25: 0 reviews</title></rect>
  <rect x="550" y="110" width="11" height="11" rx="2" fill="#161b22"><title>2025-12-26: 0 reviews</title></rect>
  <rect x="550" y="123" width="11" height="11" rx="2" fill="#161b22"><title>2025-12-27: 0 reviews</title></rect>
  <rect x="563" y="45" width="11" height="11" rx="2" fill="#161b22"><title>2025-12-28: 0 reviews</title></rect>
  <rect x="563" y="58" width="11" height="11" rx="2" fill="#161b22"><title>2025-12-29: 0 reviews</title></rect>
  <rect x="563" y="71" width="11" height="11" rx="2" fill="#161b22"><title>2025-12-30: 0 reviews</title></rect>
  <rect x="563" y="84" width="11" height="11" rx="2" fill="#161b22"><title>2025-12-31: 0 reviews</title></rect>
  <rect x="563" y="97" width="11" height="11" rx="2" fill="#161b22"><title>2026-01-01: 0 reviews</title></rect>
  <rect x="563" y="110" width="11" height="11" rx="2" fill="#161b22"><title>2026-01-02: 0 reviews</title></rect>
  <rect x="563" y="123" width="11" height="11" rx="2" fill="#161b22"><title>2026-01-03: 0 reviews</title></rect>
  <rect x="576" y="45" width="11" height="11" rx="2" fill="#161b22"><title>2026-01-04: 0 reviews</title></rect>
  <rect x="576" y="58" width="11" height="11" rx="2" fill="#161b22"><title>2026-01-05: 0 reviews</title></rect>
  <rect x="576" y="71" width="11" height="11" rx="2" fill="#161b22"><title>2026-01-06: 0 reviews</title></rect>
  <rect x="576" y="84" width="11" height="11" rx="2" fill="#161b22"><title>2026-01-07: 0 reviews</title></rect>
  <rect x="576" y="97" width="11" height="11" rx="2" fill="#161b22"><title>2026-01-08: 0 reviews</title></rect>
  <rect x="576" y="110" width="11" height="11" rx="2" fill="#161b22"><title>2026-01-09: 0 reviews</title></rect>
  <rect x="576" y="123" width="11" height="11" rx="2" fill="#161b22"><title>2026-01-10: 0 reviews</title></rect>
  <rect x="589" y="45" width="11" height="11" rx="2" fill="#161b22"><title>2026-01-11: 0 reviews</title></rect>
  <rect x="589" y="58" width="11" height="11" rx="2" fill="#161b22"><title>2026-01-12: 0 reviews</title></rect>
  <rect x="589" y="71" width="11" height="11" rx="2" fill="#161b22"><title>2026-01-13: 0 reviews</title></rect>
  <rect x="589" y="84" width="11" height="11" rx="2" fill="#2970d4"><title>2026-01-14: 135 reviews</title></rect>
  <rect x="589" y="97" width="11" height="11" rx="2" fill="#2970d4"><title>2026-01-15: 137 reviews</title></rect>
  <rect x="589" y="110" width="11" height="11" rx="2" fill="#1a4a8a"><title>2026-01-16: 74 reviews</title></rect>
  <rect x="589" y="123" width="11" height="11" rx="2" fill="#2970d4"><title>2026-01-17: 123 reviews</title></rect>
  <rect x="602" y="45" width="11" height="11" rx="2" fill="#0d2140"><title>2026-01-18: 42 reviews</title></rect>
  <rect x="602" y="58" width="11" height="11" rx="2" fill="#79c0ff"><title>2026-01-19: 251 reviews</title></rect>
  <rect x="602" y="71" width="11" height="11" rx="2" fill="#79c0ff"><title>2026-01-20: 253 reviews</title></rect>
  <rect x="602" y="84" width="11" height="11" rx="2" fill="#2970d4"><title>2026-01-21: 139 reviews</title></rect>
  <rect x="602" y="97" width="11" height="11" rx="2" fill="#1a4a8a"><title>2026-01-22: 93 reviews</title></rect>
  <rect x="602" y="110" width="11" height="11" rx="2" fill="#79c0ff"><title>2026-01-23: 385 reviews</title></rect>
  <rect x="602" y="123" width="11" height="11" rx="2" fill="#2970d4"><title>2026-01-24: 108 reviews</title></rect>
  <rect x="615" y="45" width="11" height="11" rx="2" fill="#0d2140"><title>2026-01-25: 48 reviews</title></rect>
  <rect x="615" y="58" width="11" height="11" rx="2" fill="#79c0ff"><title>2026-01-26: 401 reviews</title></rect>
  <rect x="615" y="71" width="11" height="11" rx="2" fill="#4a9eff"><title>2026-01-27: 193 reviews</title></rect>
  <rect x="615" y="84" width="11" height="11" rx="2" fill="#79c0ff"><title>2026-01-28: 347 reviews</title></rect>
  <rect x="615" y="97" width="11" height="11" rx="2" fill="#79c0ff"><title>2026-01-29: 337 reviews</title></rect>
  <rect x="615" y="110" width="11" height="11" rx="2" fill="#79c0ff"><title>2026-01-30: 399 reviews</title></rect>
  <rect x="615" y="123" width="11" height="11" rx="2" fill="#79c0ff"><title>2026-01-31: 478 reviews</title></rect>
  <rect x="628" y="45" width="11" height="11" rx="2" fill="#79c0ff"><title>2026-02-01: 574 reviews</title></rect>
  <rect x="628" y="58" width="11" height="11" rx="2" fill="#79c0ff"><title>2026-02-02: 203 reviews</title></rect>
  <rect x="628" y="71" width="11" height="11" rx="2" fill="#79c0ff"><title>2026-02-03: 553 reviews</title></rect>
  <rect x="628" y="84" width="11" height="11" rx="2" fill="#79c0ff"><title>2026-02-04: 259 reviews</title></rect>
  <rect x="628" y="97" width="11" height="11" rx="2" fill="#79c0ff"><title>2026-02-05: 328 reviews</title></rect>
  <rect x="628" y="110" width="11" height="11" rx="2" fill="#79c0ff"><title>2026-02-06: 501 reviews</title></rect>
  <rect x="628" y="123" width="11" height="11" rx="2" fill="#79c0ff"><title>2026-02-07: 247 reviews</title></rect>
  <rect x="641" y="45" width="11" height="11" rx="2" fill="#79c0ff"><title>2026-02-08: 357 reviews</title></rect>
  <rect x="641" y="58" width="11" height="11" rx="2" fill="#79c0ff"><title>2026-02-09: 324 reviews</title></rect>
  <rect x="641" y="71" width="11" height="11" rx="2" fill="#79c0ff"><title>2026-02-10: 289 reviews</title></rect>
  <rect x="641" y="84" width="11" height="11" rx="2" fill="#79c0ff"><title>2026-02-11: 221 reviews</title></rect>
  <rect x="641" y="97" width="11" height="11" rx="2" fill="#79c0ff"><title>2026-02-12: 227 reviews</title></rect>
  <rect x="641" y="110" width="11" height="11" rx="2" fill="#4a9eff"><title>2026-02-13: 197 reviews</title></rect>
  <rect x="641" y="123" width="11" height="11" rx="2" fill="#4a9eff"><title>2026-02-14: 172 reviews</title></rect>
  <rect x="654" y="45" width="11" height="11" rx="2" fill="#79c0ff"><title>2026-02-15: 215 reviews</title></rect>
  <rect x="654" y="58" width="11" height="11" rx="2" fill="#79c0ff"><title>2026-02-16: 287 reviews</title></rect>
  <rect x="654" y="71" width="11" height="11" rx="2" fill="#79c0ff"><title>2026-02-17: 328 reviews</title></rect>
  <rect x="654" y="84" width="11" height="11" rx="2" fill="#79c0ff"><title>2026-02-18: 278 reviews</title></rect>
  <rect x="654" y="97" width="11" height="11" rx="2" fill="#79c0ff"><title>2026-02-19: 315 reviews</title></rect>
  <rect x="654" y="110" width="11" height="11" rx="2" fill="#79c0ff"><title>2026-02-20: 253 reviews</title></rect>
  <rect x="654" y="123" width="11" height="11" rx="2" fill="#1a4a8a"><title>2026-02-21: 63 reviews</title></rect>
  <rect x="667" y="45" width="11" height="11" rx="2" fill="#2970d4"><title>2026-02-22: 138 reviews</title></rect>
  <rect x="667" y="58" width="11" height="11" rx="2" fill="#79c0ff"><title>2026-02-23: 223 reviews</title></rect>
  <rect x="667" y="71" width="11" height="11" rx="2" fill="#79c0ff"><title>2026-02-24: 253 reviews</title></rect>
  <rect x="667" y="84" width="11" height="11" rx="2" fill="#4a9eff"><title>2026-02-25: 151 reviews</title></rect>
  <rect x="667" y="97" width="11" height="11" rx="2" fill="#79c0ff"><title>2026-02-26: 410 reviews</title></rect>
  <rect x="667" y="110" width="11" height="11" rx="2" fill="#79c0ff"><title>2026-02-27: 238 reviews</title></rect>
  <rect x="667" y="123" width="11" height="11" rx="2" fill="#79c0ff"><title>2026-02-28: 307 reviews</title></rect>
  <rect x="680" y="45" width="11" height="11" rx="2" fill="#4a9eff"><title>2026-03-01: 197 reviews</title></rect>
  <rect x="680" y="58" width="11" height="11" rx="2" fill="#4a9eff"><title>2026-03-02: 195 reviews</title></rect>
  <rect x="680" y="71" width="11" height="11" rx="2" fill="#4a9eff"><title>2026-03-03: 172 reviews</title></rect>
  <rect x="680" y="84" width="11" height="11" rx="2" fill="#4a9eff"><title>2026-03-04: 160 reviews</title></rect>
  <rect x="680" y="97" width="11" height="11" rx="2" fill="#2970d4"><title>2026-03-05: 144 reviews</title></rect>
  <rect x="680" y="110" width="11" height="11" rx="2" fill="#79c0ff"><title>2026-03-06: 218 reviews</title></rect>
  <rect x="680" y="123" width="11" height="11" rx="2" fill="#4a9eff"><title>2026-03-07: 173 reviews</title></rect>
  <rect x="693" y="45" width="11" height="11" rx="2" fill="#4a9eff"><title>2026-03-08: 192 reviews</title></rect>
  <rect x="693" y="58" width="11" height="11" rx="2" fill="#1a4a8a"><title>2026-03-09: 90 reviews</title></rect>
  <rect x="693" y="71" width="11" height="11" rx="2" fill="#79c0ff"><title>2026-03-10: 275 reviews</title></rect>
  <rect x="693" y="84" width="11" height="11" rx="2" fill="#79c0ff"><title>2026-03-11: 394 reviews</title></rect>
  <rect x="693" y="97" width="11" height="11" rx="2" fill="#79c0ff"><title>2026-03-12: 402 reviews</title></rect>
  <rect x="693" y="110" width="11" height="11" rx="2" fill="#79c0ff"><title>2026-03-13: 268 reviews</title></rect>
  <rect x="693" y="123" width="11" height="11" rx="2" fill="#79c0ff"><title>2026-03-14: 390 reviews</title></rect>
  <rect x="706" y="45" width="11" height="11" rx="2" fill="#79c0ff"><title>2026-03-15: 313 reviews</title></rect>
  <rect x="706" y="58" width="11" height="11" rx="2" fill="#79c0ff"><title>2026-03-16: 263 reviews</title></rect>
  <rect x="706" y="71" width="11" height="11" rx="2" fill="#161b22"><title>2026-03-17: 0 reviews</title></rect>
  <rect x="706" y="84" width="11" height="11" rx="2" fill="#0d1117"/>
  <rect x="706" y="97" width="11" height="11" rx="2" fill="#0d1117"/>
  <rect x="706" y="110" width="11" height="11" rx="2" fill="#0d1117"/>
  <rect x="706" y="123" width="11" height="11" rx="2" fill="#0d1117"/>
  <text x="30" y="157" font-family="monospace" font-size="9" fill="#8b949e">Less</text>
  <rect x="58" y="146" width="11" height="11" rx="2" fill="#161b22"/>
  <rect x="71" y="146" width="11" height="11" rx="2" fill="#0d2140"/>
  <rect x="84" y="146" width="11" height="11" rx="2" fill="#1a4a8a"/>
  <rect x="97" y="146" width="11" height="11" rx="2" fill="#2970d4"/>
  <rect x="110" y="146" width="11" height="11" rx="2" fill="#4a9eff"/>
  <rect x="123" y="146" width="11" height="11" rx="2" fill="#79c0ff"/>
  <text x="138" y="157" font-family="monospace" font-size="9" fill="#8b949e">More</text>
</svg>